<mxfile host="app.diagrams.net" modified="2023-12-13T13:38:24.275Z" agent="Mozilla/5.0 (Windows NT 10.0; Win64; x64; rv:120.0) Gecko/20100101 Firefox/120.0" etag="BsdSFWqeKX3A2N-vx_AL" version="22.1.8" type="github">
  <diagram name="Page-1" id="ru4d4PAZFVmnzgpyi2bY">
    <mxGraphModel dx="1050" dy="558" grid="1" gridSize="10" guides="1" tooltips="1" connect="1" arrows="1" fold="1" page="1" pageScale="1" pageWidth="850" pageHeight="1100" math="0" shadow="0">
      <root>
        <mxCell id="0" />
        <mxCell id="1" parent="0" />
        <mxCell id="p3Z2ojsE0xdf5wfs4F8i-1" value="&lt;div&gt;User&lt;/div&gt;&lt;div&gt;Model&lt;/div&gt;" style="shape=cylinder3;whiteSpace=wrap;html=1;boundedLbl=1;backgroundOutline=1;size=15;" vertex="1" parent="1">
          <mxGeometry x="160" y="100" width="60" height="80" as="geometry" />
        </mxCell>
        <mxCell id="p3Z2ojsE0xdf5wfs4F8i-2" value="&lt;div&gt;Mission&lt;/div&gt;&lt;div&gt;Model&lt;br&gt;&lt;/div&gt;" style="shape=cylinder3;whiteSpace=wrap;html=1;boundedLbl=1;backgroundOutline=1;size=15;" vertex="1" parent="1">
          <mxGeometry x="260" y="100" width="60" height="80" as="geometry" />
        </mxCell>
        <mxCell id="p3Z2ojsE0xdf5wfs4F8i-3" value="&lt;div&gt;Flightdate&lt;/div&gt;&lt;div&gt;Model&lt;/div&gt;" style="shape=cylinder3;whiteSpace=wrap;html=1;boundedLbl=1;backgroundOutline=1;size=15;" vertex="1" parent="1">
          <mxGeometry x="360" y="100" width="60" height="80" as="geometry" />
        </mxCell>
        <mxCell id="p3Z2ojsE0xdf5wfs4F8i-4" value="&lt;div&gt;Group&lt;/div&gt;&lt;div&gt;Model&lt;br&gt;&lt;/div&gt;" style="shape=cylinder3;whiteSpace=wrap;html=1;boundedLbl=1;backgroundOutline=1;size=15;" vertex="1" parent="1">
          <mxGeometry x="450" y="100" width="60" height="80" as="geometry" />
        </mxCell>
        <mxCell id="p3Z2ojsE0xdf5wfs4F8i-5" value="&lt;div&gt;Invitation&lt;/div&gt;&lt;div&gt;Model&lt;br&gt;&lt;/div&gt;" style="shape=cylinder3;whiteSpace=wrap;html=1;boundedLbl=1;backgroundOutline=1;size=15;" vertex="1" parent="1">
          <mxGeometry x="550" y="100" width="60" height="80" as="geometry" />
        </mxCell>
        <mxCell id="p3Z2ojsE0xdf5wfs4F8i-6" value="&lt;div&gt;Invitation&lt;/div&gt;&lt;div&gt;Model&lt;br&gt;&lt;/div&gt;" style="shape=cylinder3;whiteSpace=wrap;html=1;boundedLbl=1;backgroundOutline=1;size=15;" vertex="1" parent="1">
          <mxGeometry x="650" y="100" width="60" height="80" as="geometry" />
        </mxCell>
      </root>
    </mxGraphModel>
  </diagram>
</mxfile>
